<?xml version="1.0" encoding="UTF-8"?>
<svg xmlns="http://www.w3.org/2000/svg" viewBox="0 0 24 24" fill="#c9d1d9" aria-hidden="true">
  <title>Translate</title>
  <g>
    <path d="M3 5a2 2 0 0 1 2-2h6a2 2 0 0 1 2 2v6a2 2 0 0 1-2 2H5a2 2 0 0 1-2-2V5zm2 0v6h6V5H5z"/>
    <path d="M13 11h2.382a2 2 0 0 1 1.789 1.106L20.618 20H22v2h-5v-2h1.382l-1.2-2.4H12a2 2 0 0 1-2-2V13h3v2h3.382l-.9-1.8A1 1 0 0 0 15.382 13H13v-2z"/>
    <path d="M6.5 7h1.2l.8 2h1.2l-2-5h-1.2l-2 5h1.2l.8-2zm.6-1.8.5 1.4h-1l.5-1.4z"/>
  </g>
</svg>

